<svg width="17" height="17" viewBox="0 0 17 17" fill="none" xmlns="http://www.w3.org/2000/svg">
<g clip-path="url(#clip0_1_1307)">
<path d="M11.9974 0.752594L2.74475 10.0052L0.760864 16.2391L6.99475 14.2552L16.2474 5.00259C16.2474 5.00259 16.1765 3.51439 14.8307 2.16926C13.4849 0.823427 11.9974 0.752594 11.9974 0.752594ZM12.263 1.90364C13.0223 2.04814 13.6269 2.3698 14.0933 2.84854C14.5597 3.32729 14.8881 3.96311 15.0963 4.73697L13.8125 6.02082L10.9791 3.18749L11.9974 2.16926L12.263 1.90364ZM3.52641 10.7149C3.53478 10.717 4.37814 10.9303 5.22392 11.776C6.14475 12.626 6.28642 13.4058 6.28642 13.4058L6.31685 13.4417L3.8031 14.251L2.74337 13.1913L3.52641 10.7149Z" fill="#4A85F6"/>
</g>
<defs>
<clipPath id="clip0_1_1307">
<rect width="17" height="17" fill="white"/>
</clipPath>
</defs>
</svg>
