<svg width="18" height="18" viewBox="0 0 18 18" fill="none" xmlns="http://www.w3.org/2000/svg">
<g clip-path="url(#clip0_1_1303)">
<path d="M6.77344 -0.0234375C6.4248 -0.0234375 6.14062 0.260742 6.14062 0.609375V2.76562C4.10156 2.99707 2.69531 3.46582 2.69531 4.00781V5.03906C2.69531 5.25 2.9209 5.44336 3.30469 5.625C4.30957 6.09668 6.4834 6.42188 9 6.42188C11.5195 6.42188 13.6875 6.09668 14.6953 5.625C15.0762 5.44336 15.3047 5.25 15.3047 5.03906V4.00781C15.3047 3.44824 13.7842 2.96191 11.625 2.74219V0.609375C11.625 0.260742 11.3408 -0.0234375 10.9922 -0.0234375H6.77344ZM7.40625 1.125H10.3828C10.4473 1.125 10.4766 1.42676 10.4766 1.80469V2.64844C9.99902 2.625 9.51562 2.60156 9 2.60156C8.4668 2.60156 7.94531 2.62207 7.45312 2.64844L7.28906 2.67188V1.80469C7.28906 1.42676 7.34473 1.125 7.40625 1.125ZM3.58594 7.14844C3.51855 7.21875 3.4834 7.2832 3.46875 7.35938V7.40625C3.46875 7.41797 3.46582 7.44434 3.46875 7.45312L3.89062 16.2656C3.92871 16.957 4.72852 18 9 18C13.2715 18 14.0713 16.957 14.1094 16.2656L14.5312 7.45312C14.5312 7.44141 14.5312 7.41797 14.5312 7.40625V7.35938C14.5195 7.2832 14.4814 7.21875 14.4141 7.14844C13.8633 7.70801 11.6455 7.78125 9 7.78125C6.35449 7.78125 4.13965 7.70801 3.58594 7.14844Z" fill="#4A85F6"/>
</g>
<defs>
<clipPath id="clip0_1_1303">
<rect width="18" height="18" fill="white"/>
</clipPath>
</defs>
</svg>
