<svg width="48" height="48" viewBox="0 0 48 48" fill="none" xmlns="http://www.w3.org/2000/svg">
<rect width="48" height="48" rx="4" fill="#E7F0FA"/>
<g clip-path="url(#clip0_353_6757)">
<path d="M14 16.66C14 16.0165 14.2252 15.4856 14.6757 15.0674C15.1261 14.6491 15.7117 14.4399 16.4324 14.4399C17.1403 14.4399 17.713 14.6458 18.1506 15.0577C18.601 15.4824 18.8263 16.0358 18.8263 16.7179C18.8263 17.3357 18.6075 17.8505 18.1699 18.2623C17.7194 18.687 17.1274 18.8994 16.3938 18.8994H16.3745C15.6667 18.8994 15.094 18.687 14.6564 18.2623C14.2188 17.8376 14 17.3035 14 16.66ZM14.251 33.5519V20.6562H18.5367V33.5519H14.251ZM20.9112 33.5519H25.1969V26.3511C25.1969 25.9007 25.2484 25.5532 25.3514 25.3087C25.5315 24.8711 25.805 24.5011 26.1718 24.1986C26.5386 23.8962 26.9987 23.745 27.5521 23.745C28.9936 23.745 29.7143 24.7166 29.7143 26.66V33.5519H34V26.1581C34 24.2533 33.5496 22.8087 32.6486 21.8241C31.7477 20.8396 30.5573 20.3473 29.0772 20.3473C27.417 20.3473 26.1236 21.0616 25.1969 22.4901V22.5287H25.1776L25.1969 22.4901V20.6562H20.9112C20.9369 21.068 20.9498 22.3485 20.9498 24.4979C20.9498 26.6471 20.9369 29.6652 20.9112 33.5519Z" fill="#0A65CC"/>
</g>
<defs>
<clipPath id="clip0_353_6757">
<rect width="20" height="20" fill="white" transform="translate(14 14)"/>
</clipPath>
</defs>
</svg>
