<svg width="48" height="48" viewBox="0 0 48 48" fill="none" xmlns="http://www.w3.org/2000/svg">
<rect width="48" height="48" rx="4" fill="#0A65CC"/>
<path d="M20.2547 32.0025C27.7602 32.0025 31.8646 25.8202 31.8646 20.4591C31.8646 20.2836 31.861 20.1088 31.8531 19.9347C32.6517 19.3602 33.3409 18.6488 33.8885 17.8339C33.1573 18.1571 32.3706 18.3746 31.5452 18.4726C32.3877 17.9704 33.0344 17.1758 33.3396 16.2287C32.5386 16.7011 31.6623 17.0342 30.7485 17.2135C30.0039 16.4249 28.9438 15.9316 27.77 15.9316C25.5166 15.9316 23.6893 17.7485 23.6893 19.9881C23.6893 20.3065 23.7251 20.6161 23.7952 20.9132C20.4038 20.7435 17.3966 19.1291 15.384 16.6744C15.0215 17.2935 14.8309 17.9972 14.8315 18.7135C14.8315 20.1211 15.5519 21.3636 16.6473 22.0906C15.9994 22.0709 15.3656 21.8969 14.7993 21.5832C14.7987 21.6002 14.7987 21.6168 14.7987 21.635C14.7987 23.5998 16.2052 25.2403 18.0723 25.612C17.7217 25.7069 17.3598 25.7549 16.9964 25.7547C16.7339 25.7547 16.4781 25.729 16.2295 25.6816C16.749 27.2936 18.2553 28.4666 20.0413 28.4994C18.6447 29.5878 16.8854 30.236 14.9733 30.236C14.6481 30.2363 14.323 30.2176 14 30.1798C15.8059 31.3307 17.9502 32.0022 20.2549 32.0022" fill="white"/>
</svg>
