<svg width="68" height="68" viewBox="0 0 68 68" fill="none" xmlns="http://www.w3.org/2000/svg">
<rect width="68" height="68" rx="8" fill="#E7F0FA"/>
<g clip-path="url(#clip0_10_19935)">
<path opacity="0.2" d="M44.7207 23.3733C44.8698 23.3298 45.0269 23.3217 45.1796 23.3494C45.3324 23.3772 45.4765 23.4402 45.6007 23.5333C45.7249 23.6265 45.8257 23.7472 45.8952 23.8861C45.9646 24.025 46.0007 24.1781 46.0007 24.3333V41.6666C46.0007 41.8219 45.9646 41.975 45.8952 42.1139C45.8257 42.2527 45.7249 42.3735 45.6007 42.4666C45.4765 42.5598 45.3324 42.6227 45.1796 42.6505C45.0269 42.6783 44.8698 42.6701 44.7207 42.6266L33 39.2081V26.7919L44.7207 23.3733Z" fill="#0A65CC"/>
<path d="M46.0007 24.3333V41.6666C46.0007 41.8219 45.9646 41.975 45.8952 42.1139C45.8257 42.2527 45.7249 42.3735 45.6007 42.4666C45.4765 42.5598 45.3324 42.6227 45.1796 42.6505C45.0269 42.6783 44.8698 42.6701 44.7207 42.6266L22.7207 36.21C22.513 36.1494 22.3306 36.0231 22.2007 35.85C22.0709 35.6769 22.0007 35.4663 22.0007 35.25V30.75C22.0007 30.5336 22.0709 30.3231 22.2007 30.15C22.3306 29.9769 22.513 29.8506 22.7207 29.79L44.7207 23.3733C44.8698 23.3298 45.0269 23.3217 45.1796 23.3494C45.3324 23.3772 45.4765 23.4402 45.6007 23.5333C45.7249 23.6265 45.8257 23.7472 45.8952 23.8861C45.9646 24.025 46.0007 24.1781 46.0007 24.3333V24.3333Z" stroke="#0A65CC" stroke-width="2" stroke-linecap="round" stroke-linejoin="round"/>
<path d="M27 37.4581V42C27 42.2652 27.1054 42.5196 27.2929 42.7071C27.4804 42.8946 27.7348 43 28 43H32C32.2652 43 32.5196 42.8946 32.7071 42.7071C32.8946 42.5196 33 42.2652 33 42V26.7919" stroke="#0A65CC" stroke-width="2" stroke-linecap="round" stroke-linejoin="round"/>
</g>
<defs>
<clipPath id="clip0_10_19935">
<rect width="32" height="32" fill="white" transform="matrix(-1 0 0 1 50 18)"/>
</clipPath>
</defs>
</svg>
