<svg width="56" height="56" viewBox="0 0 56 56" fill="none" xmlns="http://www.w3.org/2000/svg">
<rect width="56" height="56" rx="4" fill="#1E60C6"/>
<path d="M20.1774 32.1009C20.0872 31.6129 19.9699 31.1339 19.9068 30.6458C19.6541 28.7388 20.0602 26.9764 21.188 25.4038C22.0722 24.1656 23.2812 23.307 24.6707 22.7105C26.3398 21.9965 28.1353 21.6078 29.9489 21.5717C31.5639 21.5265 32.9714 22.123 34.1985 23.1352C35.4616 24.1836 36.4361 25.4761 37.1849 26.9312C37.5458 27.6362 37.8797 28.3592 38.2225 29.0822C38.2586 29.1636 38.2857 29.254 38.3037 29.3443C37.8255 29.6336 37.3654 29.9318 36.8782 30.1939C35.0737 31.1881 33.1248 31.8659 31.0947 32.2184C29.985 32.4082 28.8662 32.5167 27.7474 32.589C26.6827 32.6613 25.618 32.6974 24.5534 32.6703C23.1008 32.6342 21.6571 32.4082 20.1774 32.1009ZM22.4692 27.2566C22.4421 28.8472 23.7323 30.1306 25.3023 30.1487C26.818 30.1668 28.2346 29.0009 28.2346 27.2927C28.2346 25.5213 26.8722 24.4006 25.3474 24.4006C23.7684 24.4006 22.4782 25.6749 22.4692 27.2566ZM33.5579 28.0881C34.415 28.1513 35.3714 27.4373 35.3804 26.2624C35.3895 25.2863 34.6045 24.4909 33.6301 24.4819H33.594C32.6015 24.4638 31.7895 25.2592 31.7714 26.2443V26.2714C31.7714 27.3018 32.5383 28.0881 33.5579 28.0881Z" fill="white"/>
<path d="M38.3579 29.7511C38.4842 31.2695 38.1053 32.6071 37.3474 33.8363C36.3188 35.4992 34.785 36.5477 32.9805 37.2074C31.1398 37.8762 29.182 38.1383 27.2331 37.9937C26.0692 37.9124 24.8962 37.7407 23.8496 37.1894C22.0451 36.2313 20.9263 34.7039 20.3399 32.7607C20.3128 32.6433 20.3038 32.5167 20.2947 32.3992C26.6556 33.8724 32.6917 33.2217 38.3579 29.7511Z" fill="white"/>
<path d="M38.0602 24.2288C38.5293 24.0571 38.5293 24.048 38.4842 23.6052C38.4571 23.3521 38.4481 23.099 38.5744 22.855C38.6286 22.7556 38.6196 22.6291 38.6286 22.5116C38.6466 22.1501 38.9444 21.8699 39.3053 21.8699C39.6662 21.8699 39.9729 22.1591 39.991 22.5206C39.991 22.8821 39.7023 23.1804 39.3414 23.1985C39.2241 23.2075 39.1068 23.1985 38.9444 23.1985C38.9263 23.3792 38.8902 23.5419 38.9083 23.6955C38.9624 24.1384 38.8902 24.509 38.385 24.6988L39.4135 26.5244L37.8707 27.4825C37.2211 25.9731 36.2286 24.7259 35.0376 23.5871L35.9579 22.4664C36.815 22.8731 37.4556 23.5238 38.0602 24.2288ZM19.4917 29.8233L17.994 29.3172C17.9218 28.4134 18.1113 27.5728 18.4451 26.7504L17.9218 25.9189C17.7323 25.9189 17.5429 25.955 17.3805 25.9099C17.0196 25.8285 16.6677 25.7201 16.3338 25.5845C16.0722 25.476 15.9549 25.1145 16.0271 24.8524C16.1263 24.5361 16.4241 24.3372 16.7489 24.3644C17.0557 24.3915 17.3083 24.6265 17.3534 24.9337C17.3714 25.0784 17.3534 25.232 17.3534 25.4128H18.1474C18.4812 25.5483 18.4632 25.955 18.7158 26.2171C19.212 25.5664 19.6993 24.9157 20.4391 24.4547L21.1248 24.988C20.6015 25.711 20.0421 26.3889 19.8526 27.2294C19.6632 28.079 19.609 28.9285 19.4917 29.8233Z" fill="white"/>
<path d="M25.6271 22.1952L25.3203 21.436C26.1684 20.7582 27.1338 20.478 28.1534 20.3424C28.1714 20.0713 28.0361 19.9538 27.8286 19.8453C27.1248 19.4838 27.0075 18.6342 27.5669 18.1191C27.9008 17.8118 28.2978 17.7666 28.6947 17.9202C29.0556 18.0468 29.3083 18.3812 29.3353 18.7698C29.3985 19.1855 29.2 19.5923 28.8391 19.8001C28.7399 19.8544 28.6316 19.8995 28.5323 19.9447L28.6406 20.2882C29.5519 20.2701 30.4451 20.2791 31.3293 20.6316L31.203 21.3818C29.3353 21.3908 27.4406 21.2914 25.6271 22.1952Z" fill="white"/>
</svg>
