<svg width="56" height="56" viewBox="0 0 56 56" fill="none" xmlns="http://www.w3.org/2000/svg">
<rect width="56" height="56" rx="4" fill="#6FDA44"/>
<path d="M34.4835 29.1387C33.397 29.1387 32.379 28.6798 31.454 27.9328L31.6793 26.8783L31.6891 26.8392C31.8896 25.7165 32.5259 23.8318 34.4835 23.8318C35.9516 23.8318 37.1458 25.0231 37.1458 26.4877C37.1408 27.9474 35.9467 29.1387 34.4835 29.1387ZM34.4835 21.1419C31.9826 21.1419 30.0447 22.7627 29.2568 25.4283C28.0529 23.6268 27.1425 21.4641 26.6092 19.6431H23.9175V26.6293C23.9175 28.006 22.7919 29.1288 21.4118 29.1288C20.0317 29.1288 18.9062 28.006 18.9062 26.6293V19.6431H16.2143V26.6293C16.2045 29.4903 18.5389 31.8385 21.4067 31.8385C24.2746 31.8385 26.609 29.4903 26.609 26.6293V25.4577C27.1326 26.5463 27.7737 27.6447 28.5519 28.6212L26.9026 36.3543H29.6579L30.852 30.7449C31.8993 31.4137 33.1032 31.8336 34.4833 31.8336C37.4343 31.8336 39.8373 29.4219 39.8373 26.4779C39.8373 23.5389 37.4343 21.1419 34.4833 21.1419H34.4835Z" fill="white"/>
</svg>
