<svg width="56" height="56" viewBox="0 0 56 56" fill="none" xmlns="http://www.w3.org/2000/svg">
<rect width="56" height="56" rx="4" fill="#EDEFF5"/>
<g clip-path="url(#clip0_10_20321)">
<path fill-rule="evenodd" clip-rule="evenodd" d="M24.8312 16C23.5073 16.001 22.4358 17.0755 22.4368 18.3995C22.4358 19.7235 23.5082 20.798 24.8321 20.799H27.2275V18.4005C27.2285 17.0765 26.1561 16.002 24.8312 16C24.8321 16 24.8321 16 24.8312 16V16ZM24.8312 22.4H18.4454C17.1215 22.401 16.0491 23.4755 16.0501 24.7995C16.0481 26.1235 17.1205 27.198 18.4445 27.2H24.8312C26.1551 27.199 27.2275 26.1245 27.2266 24.8005C27.2275 23.4755 26.1551 22.401 24.8312 22.4Z" fill="#36C5F0"/>
<path fill-rule="evenodd" clip-rule="evenodd" d="M40 24.7995C40.001 23.4755 38.9285 22.401 37.6046 22.4C36.2807 22.401 35.2083 23.4755 35.2092 24.7995V27.2H37.6046C38.9285 27.199 40.001 26.1245 40 24.7995ZM33.6133 24.7995V18.3995C33.6143 17.0765 32.5428 16.002 31.2189 16C29.895 16.001 28.8225 17.0755 28.8235 18.3995V24.7995C28.8215 26.1235 29.894 27.198 31.2179 27.2C32.5418 27.199 33.6143 26.1245 33.6133 24.7995Z" fill="#2EB67D"/>
<path fill-rule="evenodd" clip-rule="evenodd" d="M31.2179 40C32.5418 39.999 33.6143 38.9245 33.6133 37.6005C33.6143 36.2765 32.5418 35.202 31.2179 35.201H28.8225V37.6005C28.8215 38.9236 29.894 39.9981 31.2179 40ZM31.2179 33.599H37.6046C38.9285 33.598 40.001 32.5235 40 31.1995C40.0019 29.8755 38.9295 28.801 37.6056 28.799H31.2189C29.895 28.8 28.8225 29.8745 28.8235 31.1985C28.8225 32.5235 29.894 33.598 31.2179 33.599Z" fill="#ECB22E"/>
<path fill-rule="evenodd" clip-rule="evenodd" d="M16.0501 31.1995C16.0491 32.5235 17.1216 33.598 18.4455 33.599C19.7694 33.598 20.8418 32.5235 20.8409 31.1995V28.8H18.4455C17.1216 28.801 16.0491 29.8755 16.0501 31.1995ZM22.4368 31.1995V37.5995C22.4348 38.9236 23.5073 39.9981 24.8312 40C26.1551 39.999 27.2276 38.9245 27.2266 37.6005V31.2015C27.2285 29.8774 26.1561 28.8029 24.8322 28.801C23.5073 28.801 22.4358 29.8755 22.4368 31.1995C22.4368 31.2005 22.4368 31.1995 22.4368 31.1995Z" fill="#E01E5A"/>
</g>
<defs>
<clipPath id="clip0_10_20321">
<rect width="24" height="24" fill="white" transform="translate(16 16)"/>
</clipPath>
</defs>
</svg>
