<svg width="25" height="25" viewBox="0 0 25 25" fill="none" xmlns="http://www.w3.org/2000/svg">
<path d="M5.26855 11.5002C5.26608 10.6146 5.43837 9.73727 5.77554 8.91841C6.11271 8.09956 6.60815 7.35528 7.23346 6.72822C7.85876 6.10116 8.60166 5.60365 9.41957 5.26419C10.2375 4.92474 11.1143 4.75 11.9999 4.75C12.8854 4.75 13.7623 4.92474 14.5802 5.26419C15.3981 5.60365 16.141 6.10116 16.7663 6.72822C17.3916 7.35528 17.8871 8.09956 18.2242 8.91841C18.5614 9.73727 18.7337 10.6146 18.7312 11.5002V11.5002C18.7312 14.8579 19.4337 16.8063 20.0524 17.8712C20.1191 17.985 20.1546 18.1144 20.1553 18.2462C20.156 18.3781 20.1219 18.5078 20.0565 18.6223C19.991 18.7368 19.8966 18.832 19.7826 18.8984C19.6686 18.9647 19.5392 18.9998 19.4073 19.0002H4.59173C4.45985 18.9998 4.33038 18.9647 4.2164 18.8984C4.10242 18.832 4.00795 18.7368 3.94252 18.6223C3.8771 18.5077 3.84303 18.378 3.84376 18.2461C3.84449 18.1142 3.87999 17.9849 3.94667 17.8711C4.56573 16.8061 5.26855 14.8577 5.26855 11.5002H5.26855Z" stroke="#18191C" stroke-width="1.5" stroke-linecap="round" stroke-linejoin="round"/>
<path d="M9 19V19.75C9 20.5456 9.31607 21.3087 9.87868 21.8713C10.4413 22.4339 11.2044 22.75 12 22.75C12.7956 22.75 13.5587 22.4339 14.1213 21.8713C14.6839 21.3087 15 20.5456 15 19.75V19" stroke="#18191C" stroke-width="1.5" stroke-linecap="round" stroke-linejoin="round"/>
<path d="M17.1973 3.24902C18.7234 4.21245 19.9536 5.57885 20.7521 7.19736" stroke="#18191C" stroke-width="1.5" stroke-linecap="round" stroke-linejoin="round"/>
<path d="M3.24805 7.19736C4.04657 5.57885 5.27679 4.21245 6.80291 3.24902" stroke="#18191C" stroke-width="1.5" stroke-linecap="round" stroke-linejoin="round"/>
<circle cx="18" cy="7" r="6" fill="#E05151" stroke="white" stroke-width="2"/>
</svg>
