<svg width="64" height="64" viewBox="0 0 64 64" fill="none" xmlns="http://www.w3.org/2000/svg">
<rect width="64" height="64" rx="5" fill="white"/>
<path d="M23.0247 30C23.0214 28.8192 23.2512 27.6494 23.7007 26.5576C24.1503 25.4658 24.8109 24.4735 25.6446 23.6374C26.4784 22.8013 27.4689 22.138 28.5594 21.6853C29.65 21.2327 30.8191 20.9998 31.9999 20.9998C33.1806 20.9998 34.3497 21.2327 35.4403 21.6853C36.5308 22.138 37.5214 22.8013 38.3551 23.6374C39.1888 24.4735 39.8494 25.4658 40.299 26.5576C40.7486 27.6494 40.9783 28.8192 40.975 30C40.975 34.4769 41.9116 37.0748 42.7366 38.4947C42.8255 38.6465 42.8728 38.8189 42.8737 38.9948C42.8746 39.1706 42.8292 39.3435 42.7419 39.4962C42.6547 39.6489 42.5288 39.7758 42.3768 39.8643C42.2248 39.9527 42.0522 39.9995 41.8764 40H22.1223C21.9465 39.9995 21.7738 39.9527 21.6219 39.8642C21.4699 39.7758 21.3439 39.6488 21.2567 39.4961C21.1695 39.3434 21.124 39.1704 21.125 38.9946C21.126 38.8187 21.1733 38.6462 21.2622 38.4945C22.0876 37.0746 23.0247 34.4767 23.0247 30H23.0247Z" fill="#E7F6EA" stroke="#0BA02C" stroke-width="2" stroke-linecap="round" stroke-linejoin="round"/>
<path d="M28 40V41C28 42.0609 28.4214 43.0783 29.1716 43.8284C29.9217 44.5786 30.9391 45 32 45C33.0609 45 34.0783 44.5786 34.8284 43.8284C35.5786 43.0783 36 42.0609 36 41V40" stroke="#0BA02C" stroke-width="2" stroke-linecap="round" stroke-linejoin="round"/>
<path d="M38.9297 18.9985C40.9645 20.2831 42.6048 22.105 43.6695 24.263" stroke="#0BA02C" stroke-width="2" stroke-linecap="round" stroke-linejoin="round"/>
<path d="M20.332 24.263C21.3967 22.105 23.037 20.2831 25.0718 18.9985" stroke="#0BA02C" stroke-width="2" stroke-linecap="round" stroke-linejoin="round"/>
</svg>
