<svg width="64" height="64" viewBox="0 0 64 64" fill="none" xmlns="http://www.w3.org/2000/svg">
<rect width="64" height="64" rx="5" fill="white"/>
<g clip-path="url(#clip0_1_13450)">
<path opacity="0.2" d="M32.001 35.0001C27.7882 35.0067 23.6486 33.8992 20.002 31.7899V42.0001C20.002 42.1314 20.0278 42.2614 20.0781 42.3827C20.1283 42.5041 20.202 42.6143 20.2948 42.7072C20.3877 42.8 20.4979 42.8737 20.6193 42.9239C20.7406 42.9742 20.8706 43.0001 21.002 43.0001H43.002C43.1333 43.0001 43.2633 42.9742 43.3846 42.9239C43.506 42.8737 43.6162 42.8 43.7091 42.7072C43.8019 42.6143 43.8756 42.5041 43.9258 42.3827C43.9761 42.2614 44.002 42.1314 44.002 42.0001V31.7887C40.3548 33.8988 36.2145 35.0067 32.001 35.0001Z" fill="#0A65CC"/>
<path d="M43.002 25H21.002C20.4497 25 20.002 25.4477 20.002 26V42C20.002 42.5523 20.4497 43 21.002 43H43.002C43.5542 43 44.002 42.5523 44.002 42V26C44.002 25.4477 43.5542 25 43.002 25Z" stroke="#0A65CC" stroke-width="1.5" stroke-linecap="round" stroke-linejoin="round"/>
<path d="M37 25V23C37 22.4696 36.7893 21.9609 36.4142 21.5858C36.0391 21.2107 35.5304 21 35 21H29C28.4696 21 27.9609 21.2107 27.5858 21.5858C27.2107 21.9609 27 22.4696 27 23V25" stroke="#0A65CC" stroke-width="1.5" stroke-linecap="round" stroke-linejoin="round"/>
<path d="M44.0002 31.7888C40.3531 33.8989 36.2127 35.0068 31.9992 35.0002C27.7864 35.0068 23.6467 33.8993 20 31.7899" stroke="#0A65CC" stroke-width="1.5" stroke-linecap="round" stroke-linejoin="round"/>
<path d="M30.5 31H33.5" stroke="#0A65CC" stroke-width="1.5" stroke-linecap="round" stroke-linejoin="round"/>
</g>
<defs>
<clipPath id="clip0_1_13450">
<rect width="32" height="32" fill="white" transform="translate(16 16)"/>
</clipPath>
</defs>
</svg>
