<svg width="16" height="16" viewBox="0 0 16 16" fill="none" xmlns="http://www.w3.org/2000/svg">
<g id="Employers Logo">
<path id="Vector" d="M5.00378 14.4021C11.0081 14.4021 14.2917 9.45627 14.2917 5.1674C14.2917 5.02694 14.2888 4.88712 14.2824 4.74789C14.9214 4.28823 15.4728 3.71911 15.9108 3.06719C15.3259 3.32574 14.6965 3.49976 14.0362 3.57822C14.7101 3.17641 15.2275 2.54074 15.4716 1.78303C14.8308 2.16099 14.1298 2.42742 13.3988 2.57086C12.8031 1.93998 11.955 1.54541 11.016 1.54541C9.21328 1.54541 7.75143 2.99892 7.75143 4.7906C7.75143 5.04533 7.78011 5.29301 7.83612 5.53067C5.12304 5.39493 2.71728 4.10341 1.10722 2.13958C0.817235 2.6349 0.664706 3.19784 0.665213 3.7709C0.665213 4.89696 1.24149 5.89101 2.11788 6.47258C1.59949 6.45684 1.09247 6.31762 0.639471 6.06663C0.638986 6.08026 0.638986 6.09353 0.638986 6.10809C0.638986 7.67992 1.76419 8.9923 3.25786 9.28968C2.97733 9.36564 2.68785 9.40404 2.39709 9.40387C2.18712 9.40387 1.98248 9.38334 1.78359 9.34538C2.19918 10.635 3.40426 11.5734 4.83303 11.5996C3.71575 12.4703 2.30832 12.9889 0.778658 12.9889C0.518442 12.9892 0.258439 12.9741 0 12.944C1.44471 13.8647 3.16017 14.4019 5.00394 14.4019" fill="#0A65CC"/>
</g>
</svg>
